# Created by Kenney (www.kenney.nl)

mtllib HugeMagnet.mtl

g cylinderVertex

v 0.5 -2.384186E-07 1.000002
v 0.3535534 -0.3535542 1.000002
v 0.3535534 0.3535538 1.000003
v 1.082867E-15 0.5000006 1.000002
v 7.219114E-16 -0.500001 1.000002
v -0.3535534 0.3535538 1.000003
v -0.3535534 -0.3535542 1.000002
v -0.5 -2.384186E-07 1.000002
v 0.3535534 0.353554 -0.6000006
v 0.5 1.38499E-14 -0.6000006
v -0.3535534 0.353554 -0.6000006
v 1.082867E-15 0.5000008 -0.6000006
v 0.3535534 -0.353554 -0.6000006
v -0.5 1.38499E-14 -0.6000006
v -0.3535534 -0.353554 -0.6000006
v 7.219114E-16 -0.5000008 -0.6000007

vn 0 -2.384186E-07 1.600003
vn 0.9238795 0.3826841 5.960464E-08
vn -0.3826834 0.9238811 1.192093E-07
vn 0.9238795 -0.3826841 -5.960464E-08
vn -0.9238795 0.3826841 5.960464E-08
vn -0.9238795 -0.3826841 -5.960464E-08
vn 0.3826834 -0.9238811 -1.192093E-07
vn 0.3826834 0.9238811 1.192093E-07
vn 0 2.384186E-07 -1.600003
vn -0.3826834 -0.9238811 -1.192093E-07

vt 0.5 -1.907352E-07
vt 0.3535534 -0.3535542
vt 0.3535534 0.3535538
vt 1.082867E-15 0.5000007
vt 7.219114E-16 -0.500001
vt -0.3535534 0.3535538
vt -0.3535534 -0.3535542
vt -0.5 -1.907352E-07
vt -1.000002 0.3535538
vt 0.6000006 0.353554
vt -1.000002 -1.907352E-07
vt 0.6000006 1.38499E-14
vt 0.3535534 -0.6000006
vt -1.082867E-15 -0.6000006
vt 0.3535534 1.000002
vt -1.082867E-15 1.000003
vt -1.000002 -0.3535542
vt 0.6000007 -0.353554
vt -0.6000006 0.353554
vt 1.000002 0.3535538
vt -0.6000006 1.38499E-14
vt 1.000002 -1.907352E-07
vt -0.6000007 -0.353554
vt 1.000002 -0.3535542
vt -0.3535534 0.6000007
vt -7.219114E-16 0.6000007
vt -0.3535534 -1.000002
vt -7.219114E-16 -1.000002
vt -0.3535534 -0.6000006
vt -0.3535534 1.000002
vt -0.5 1.38499E-14
vt -0.3535534 0.353554
vt -0.3535534 -0.353554
vt -7.219114E-16 -0.5000008
vt -1.082867E-15 0.5000008
vt 0.3535534 0.353554
vt 0.3535534 -0.353554
vt 0.5 1.38499E-14
vt 0.3535534 0.6000007
vt 0.3535534 -1.000002

usemtl metalDark(Clone)

f 3/3/1 2/2/1 1/1/1
f 2/2/1 3/3/1 4/4/1
f 2/2/1 4/4/1 5/5/1
f 5/5/1 4/4/1 6/6/1
f 5/5/1 6/6/1 7/7/1
f 7/7/1 6/6/1 8/8/1
f 1/11/2 9/10/2 3/9/2
f 9/10/2 1/11/2 10/12/2
f 6/15/3 12/14/3 11/13/3
f 12/14/3 6/15/3 4/16/3
f 2/17/4 10/12/4 1/11/4
f 10/12/4 2/17/4 13/18/4
f 14/21/5 6/20/5 11/19/5
f 6/20/5 14/21/5 8/22/5
f 15/23/6 8/22/6 14/21/6
f 8/22/6 15/23/6 7/24/6
f 2/27/7 16/26/7 13/25/7
f 16/26/7 2/27/7 5/28/7
f 4/16/8 9/29/8 12/14/8
f 9/29/8 4/16/8 3/30/8
f 13/33/9 9/32/9 10/31/9
f 9/32/9 13/33/9 16/34/9
f 9/32/9 16/34/9 12/35/9
f 12/35/9 16/34/9 11/36/9
f 11/36/9 16/34/9 15/37/9
f 11/36/9 15/37/9 14/38/9
f 5/28/10 15/39/10 16/26/10
f 15/39/10 5/28/10 7/40/10

