# Created by Kenney (www.kenney.nl)

mtllib WoodenBlock.mtl

g cylinderSquare

v 0.5 0 0.3
v 0.5 0 -0.3
v 0.4931852 0 0.3517638
v 0.4931852 0 -0.3517638
v 0.4732051 0 0.4
v 0.4732051 0 -0.4
v 0.4414214 0 0.4414214
v 0.4414214 0 -0.4414214
v 0.4 0 0.4732051
v 0.4 0 -0.4732051
v 0.3517638 0 0.4931852
v 0.3517638 0 -0.4931852
v 0.3 0 0.5
v 0.3 0 -0.5
v -0.3 0 0.5
v -0.3 0 -0.5
v -0.3517638 0 0.4931852
v -0.3517638 0 -0.4931852
v -0.4 0 0.4732051
v -0.4 0 -0.4732051
v -0.4414214 0 0.4414214
v -0.4414214 0 -0.4414214
v -0.4732051 0 0.4
v -0.4732051 0 -0.4
v -0.4931852 0 0.3517638
v -0.4931852 0 -0.3517638
v -0.5 0 0.3
v -0.5 0 -0.3
v -0.5 1 -0.3
v -0.5 1 0.3
v -0.3 1 -0.5
v 0.3 1 -0.5
v 0.3 1 0.5
v -0.3 1 0.5
v 0.5 1 -0.3
v 0.5 1 0.3
v 0.4931852 1 -0.3517638
v 0.4931852 1 0.3517638
v 0.4732051 1 -0.4
v 0.4732051 1 0.4
v 0.4414214 1 -0.4414214
v 0.4414214 1 0.4414214
v 0.4 1 -0.4732051
v 0.4 1 0.4732051
v 0.3517638 1 -0.4931852
v 0.3517638 1 0.4931852
v -0.3517638 1 -0.4931852
v -0.3517638 1 0.4931852
v -0.4 1 -0.4732051
v -0.4 1 0.4732051
v -0.4414214 1 -0.4414214
v -0.4414214 1 0.4414214
v -0.4732051 1 -0.4
v -0.4732051 1 0.4
v -0.4931852 1 -0.3517638
v -0.4931852 1 0.3517638

vn 0 -1 0
vn -1 0 0
vn 0 0 -1
vn 0 0 1
vn 1 0 0
vn 0 1 0
vn -0.1305262 0 0.9914449
vn -0.258819 0 0.9659258
vn -0.5 0 0.8660254
vn -0.7071068 0 0.7071068
vn -0.8660254 0 0.5
vn -0.9659258 0 0.258819
vn -0.9914449 0 0.1305262
vn 0.9914449 0 0.1305262
vn 0.9659258 0 0.258819
vn 0.8660254 0 0.5
vn 0.7071068 0 0.7071068
vn 0.5 0 0.8660254
vn 0.258819 0 0.9659258
vn 0.1305262 0 0.9914449
vn 0.1305262 0 -0.9914449
vn 0.258819 0 -0.9659258
vn 0.5 0 -0.8660254
vn 0.7071068 0 -0.7071068
vn 0.8660254 0 -0.5
vn 0.9659258 0 -0.258819
vn 0.9914449 0 -0.1305262
vn -0.9659258 0 -0.258819
vn -0.9914449 0 -0.1305262
vn -0.8660254 0 -0.5
vn -0.7071068 0 -0.7071068
vn -0.5 0 -0.8660254
vn -0.258819 0 -0.9659258
vn -0.1305262 0 -0.9914449

vt -0.5 -0.3
vt -0.5 0.3
vt -0.4931852 -0.3517638
vt -0.4931852 0.3517638
vt -0.4732051 -0.4
vt -0.4732051 0.4
vt -0.4414214 -0.4414214
vt -0.4414214 0.4414214
vt -0.4 -0.4732051
vt -0.4 0.4732051
vt -0.3517638 -0.4931852
vt -0.3517638 0.4931852
vt -0.3 -0.5
vt -0.3 0.5
vt 0.3 -0.5
vt 0.3 0.5
vt 0.3517638 -0.4931852
vt 0.3517638 0.4931852
vt 0.4 -0.4732051
vt 0.4 0.4732051
vt 0.4414214 -0.4414214
vt 0.4414214 0.4414214
vt 0.4732051 -0.4
vt 0.4732051 0.4
vt 0.4931852 -0.3517638
vt 0.4931852 0.3517638
vt 0.5 -0.3
vt 0.5 0.3
vt -0.3 0
vt -0.3 1
vt 0.3 0
vt 0.3 1
vt -0.3517638 0
vt -0.3517638 1
vt -0.4 0
vt -0.4 1
vt -0.4414214 0
vt -0.4414214 1
vt 0.4414214 1
vt 0.4414214 0
vt 0.4 1
vt 0.4 0
vt 0.3517638 1
vt 0.3517638 0

usemtl custom2(Clone)

f 3/3/1 2/2/1 1/1/1
f 2/2/1 3/3/1 4/4/1
f 4/4/1 3/3/1 5/5/1
f 4/4/1 5/5/1 6/6/1
f 6/6/1 5/5/1 7/7/1
f 6/6/1 7/7/1 8/8/1
f 8/8/1 7/7/1 9/9/1
f 8/8/1 9/9/1 10/10/1
f 10/10/1 9/9/1 11/11/1
f 10/10/1 11/11/1 12/12/1
f 12/12/1 11/11/1 13/13/1
f 12/12/1 13/13/1 14/14/1
f 14/14/1 13/13/1 15/15/1
f 14/14/1 15/15/1 16/16/1
f 16/16/1 15/15/1 17/17/1
f 16/16/1 17/17/1 18/18/1
f 18/18/1 17/17/1 19/19/1
f 18/18/1 19/19/1 20/20/1
f 20/20/1 19/19/1 21/21/1
f 20/20/1 21/21/1 22/22/1
f 22/22/1 21/21/1 23/23/1
f 22/22/1 23/23/1 24/24/1
f 24/24/1 23/23/1 25/25/1
f 24/24/1 25/25/1 26/26/1
f 26/26/1 25/25/1 27/27/1
f 26/26/1 27/27/1 28/28/1
f 27/31/2 29/30/2 28/29/2
f 29/30/2 27/31/2 30/32/2
f 31/32/3 14/29/3 16/31/3
f 14/29/3 31/32/3 32/30/3
f 33/32/4 15/29/4 13/31/4
f 15/29/4 33/32/4 34/30/4
f 36/30/5 2/31/5 35/32/5
f 2/31/5 36/30/5 1/29/5
f 37/3/6 36/2/6 35/1/6
f 36/2/6 37/3/6 38/4/6
f 38/4/6 37/3/6 39/5/6
f 38/4/6 39/5/6 40/6/6
f 40/6/6 39/5/6 41/7/6
f 40/6/6 41/7/6 42/8/6
f 42/8/6 41/7/6 43/9/6
f 42/8/6 43/9/6 44/10/6
f 44/10/6 43/9/6 45/11/6
f 44/10/6 45/11/6 46/12/6
f 46/12/6 45/11/6 32/13/6
f 46/12/6 32/13/6 33/14/6
f 33/14/6 32/13/6 31/15/6
f 33/14/6 31/15/6 34/16/6
f 34/16/6 31/15/6 47/17/6
f 34/16/6 47/17/6 48/18/6
f 48/18/6 47/17/6 49/19/6
f 48/18/6 49/19/6 50/20/6
f 50/20/6 49/19/6 51/21/6
f 50/20/6 51/21/6 52/22/6
f 52/22/6 51/21/6 53/23/6
f 52/22/6 53/23/6 54/24/6
f 54/24/6 53/23/6 55/25/6
f 54/24/6 55/25/6 56/26/6
f 56/26/6 55/25/6 29/27/6
f 56/26/6 29/27/6 30/28/6
f 34/30/7 17/33/8 15/29/7
f 17/33/8 34/30/7 48/34/8
f 48/34/8 19/35/9 17/33/8
f 19/35/9 48/34/8 50/36/9
f 50/36/9 21/37/10 19/35/9
f 21/37/10 50/36/9 52/38/10
f 54/41/11 21/40/10 52/39/10
f 21/40/10 54/41/11 23/42/11
f 56/43/12 23/42/11 54/41/11
f 23/42/11 56/43/12 25/44/12
f 30/32/13 25/44/12 56/43/12
f 25/44/12 30/32/13 27/31/13
f 38/34/15 1/29/14 36/30/14
f 1/29/14 38/34/15 3/33/15
f 40/36/16 3/33/15 38/34/15
f 3/33/15 40/36/16 5/35/16
f 42/38/17 5/35/16 40/36/16
f 5/35/16 42/38/17 7/37/17
f 42/39/17 9/42/18 7/40/17
f 9/42/18 42/39/17 44/41/18
f 44/41/18 11/44/19 9/42/18
f 11/44/19 44/41/18 46/43/19
f 46/43/19 13/31/20 11/44/19
f 13/31/20 46/43/19 33/32/20
f 32/30/21 12/33/22 14/29/21
f 12/33/22 32/30/21 45/34/22
f 45/34/22 10/35/23 12/33/22
f 10/35/23 45/34/22 43/36/23
f 43/36/23 8/37/24 10/35/23
f 8/37/24 43/36/23 41/38/24
f 39/41/25 8/40/24 41/39/24
f 8/40/24 39/41/25 6/42/25
f 37/43/26 6/42/25 39/41/25
f 6/42/25 37/43/26 4/44/26
f 35/32/27 4/44/26 37/43/26
f 4/44/26 35/32/27 2/31/27
f 28/29/29 55/34/28 26/33/28
f 55/34/28 28/29/29 29/30/29
f 53/36/30 26/33/28 55/34/28
f 26/33/28 53/36/30 24/35/30
f 51/38/31 24/35/30 53/36/30
f 24/35/30 51/38/31 22/37/31
f 51/39/31 20/42/32 22/40/31
f 20/42/32 51/39/31 49/41/32
f 49/41/32 18/44/33 20/42/32
f 18/44/33 49/41/32 47/43/33
f 47/43/33 16/31/34 18/44/33
f 16/31/34 47/43/33 31/32/34

